<svg xmlns="http://www.w3.org/2000/svg" viewBox="0 0 160 140">
  <!-- Connector lines -->
  <path stroke="var(--c2)" stroke-width="2.5" fill="none" d="m41.31 104.44 19.05-11.67M40.77 67.2l17.89 8.37m26.69 20.18 7.76 9.62m-2.28-25.79 25.97-8.2M43.22 110l45.18 3.54m-3.05-44.09L96.3 53.4M73.19 65.35l-.56-15.85m62.46.62.66-11.08m-25.9 65.39 13.9-22.85M34.36 51.54l6.4-22.2m-6.4 71.05-2.48-27.24m26.78-43.88-9.46-3.36M93.1 42.4l-6.06-2.95m36.71-6.97-13.83 8.34"/>
  <!-- Border -->
  <rect stroke="var(--c1)" fill="none" width="158" height="138" x="1" y="1" rx="7.55"/>
  <!-- Nodes -->
  <g filter="url(#g)" stroke="var(--c1)" fill="var(--c1)">
    <circle cx="101.77" cy="114.89" r="12.74" fill="none" stroke-width="2"/>
    <circle cx="101.77" cy="114.89" r="10.45" stroke="none"/>

    <circle cx="132.91" cy="67.18" r="16.79" fill="none" stroke-width="2.5"/>
    <circle cx="132.91" cy="67.18" r="13.84" stroke="none"/>

    <circle cx="74.26" cy="83.05" r="16.79" fill="none" stroke-width="2.5"/>
    <circle cx="74.26" cy="83.05" r="13.84" stroke="none"/>

    <circle cx="41.31" cy="20.21" r="9.16" fill="none" stroke-width="1.5"/>
    <circle cx="41.31" cy="20.21" r="7.38" stroke="none"/>

    <circle cx="33.78" cy="110" r="9.16" fill="none" stroke-width="1.5"/>
    <circle cx="33.78" cy="110" r="7.38" stroke="none"/>

    <circle cx="102.05" cy="46.2" r="9.16" fill="none" stroke-width="1.5"/>
    <circle cx="102.05" cy="46.2" r="7.38" stroke="none"/>

    <circle cx="72.36" cy="34.37" r="15.02" fill="none" stroke-width="1.5"/>
    <circle cx="72.36" cy="34.37" r="12.85" stroke="none"/>

    <circle cx="31.02" cy="61.83" r="10.86" fill="none" stroke-width="1.5"/>
    <circle cx="31.02" cy="61.83" r="8.65" stroke="none"/>

    <circle cx="136.6" cy="24.78" r="14.63" fill="none" stroke-width="1.5"/>
    <circle cx="136.6" cy="24.78" r="12.46" stroke="none"/>
  </g>
  <defs>
    <filter id="g" x="-100%" y="-100%" width="300%" height="300%" color-interpolation-filters="sRGB">
      <feFlood flood-opacity="0" result="bg"/>
      <feColorMatrix in="SourceAlpha" result="a" values="0 0 0 0 0 0 0 0 0 0 0 0 0 0 0 0 0 0 127 0"/>
      <feMorphology in="SourceAlpha" operator="dilate" radius="3"/>
      <feGaussianBlur stdDeviation="8.2"/>
      <feComposite in2="a" operator="out"/>
      <feColorMatrix values="0 0 0 0 1 0 0 0 0 1 0 0 0 0 1 0 0 0 0.35 0"/>
      <feBlend in2="bg" result="glow"/>
      <feBlend in="SourceGraphic" in2="glow"/>
    </filter>
  </defs>
</svg>
