<svg xmlns="http://www.w3.org/2000/svg" viewBox="0.9 0 20.1 20"><defs><linearGradient id="a" x1="0%" x2="0%" y1="0%" y2="100%" gradientUnits="objectBoundingBox" spreadMethod="repeat"><stop offset="0%" stop-color="#31F196"/><stop offset="14.29%" stop-color="#57C9FA"/><stop offset="28.57%" stop-color="#C993FF"/><stop offset="42.86%" stop-color="#FF95EE"/><stop offset="57.14%" stop-color="#FF9C8E"/><stop offset="71.43%" stop-color="#FCB159"/><stop offset="85.71%" stop-color="#FAD657"/><stop offset="100%" stop-color="#31F196"/><animateTransform attributeName="gradientTransform" calcMode="linear" dur="7s" repeatCount="indefinite" type="translate" values="0 0; 0 1; 0 2"/></linearGradient></defs><path fill="none" stroke="url(#a)" stroke-linecap="round" stroke-linejoin="round" stroke-width="1.66" d="M17.6 2.58v3.33m1.66-1.66h-3.33M4.3 14.22v1.67m.83-.84H3.46m5.77-2.07a1.66 1.66 0 0 0-1.2-1.2l-5.1-1.31a.42.42 0 0 1 0-.8l5.1-1.32a1.66 1.66 0 0 0 1.2-1.2l1.31-5.1a.42.42 0 0 1 .8 0l1.32 5.1a1.66 1.66 0 0 0 1.2 1.2l5.1 1.32a.42.42 0 0 1 0 .8l-5.1 1.31a1.66 1.66 0 0 0-1.2 1.2l-1.32 5.1a.42.42 0 0 1-.8 0l-1.31-5.1Z"/></svg>
